<?xml version="1.0" encoding="UTF-8" standalone="no"?>
<svg
   xmlns:osb="http://www.openswatchbook.org/uri/2009/osb"
   xmlns:dc="http://purl.org/dc/elements/1.1/"
   xmlns:cc="http://creativecommons.org/ns#"
   xmlns:rdf="http://www.w3.org/1999/02/22-rdf-syntax-ns#"
   xmlns:svg="http://www.w3.org/2000/svg"
   xmlns="http://www.w3.org/2000/svg"
   xmlns:xlink="http://www.w3.org/1999/xlink"
   xmlns:sodipodi="http://sodipodi.sourceforge.net/DTD/sodipodi-0.dtd"
   xmlns:inkscape="http://www.inkscape.org/namespaces/inkscape"
   width="440"
   height="440"
   viewBox="0 0 440.00001 440.00001"
   id="svg2"
   version="1.1"
   inkscape:version="0.91 r13725"
   sodipodi:docname="face_with_shadow.svg">
  <sodipodi:namedview
     pagecolor="#ffffff"
     bordercolor="#666666"
     borderopacity="1"
     objecttolerance="10"
     gridtolerance="10"
     guidetolerance="10"
     inkscape:pageopacity="0"
     inkscape:pageshadow="2"
     inkscape:window-width="1214"
     inkscape:window-height="631"
     id="namedview3443"
     showgrid="false"
     inkscape:zoom="0.96102398"
     inkscape:cx="151.73314"
     inkscape:cy="200"
     inkscape:window-x="25"
     inkscape:window-y="16"
     inkscape:window-maximized="0"
     inkscape:current-layer="svg2" />
  <defs
     id="defs4">
    <linearGradient
       id="linearGradient5739"
       osb:paint="solid">
      <stop
         style="stop-color:#000000;stop-opacity:1;"
         offset="0"
         id="stop5741" />
    </linearGradient>
    <linearGradient
       id="linearGradient4279-1"
       inkscape:collect="always">
      <stop
         id="stop4289"
         offset="0"
         style="stop-color:#000000;stop-opacity:1;" />
      <stop
         style="stop-color:#000000;stop-opacity:1"
         offset="0.6973995"
         id="stop4293" />
      <stop
         id="stop4291"
         offset="1"
         style="stop-color:#000000;stop-opacity:0;" />
    </linearGradient>
    <linearGradient
       id="linearGradient8559">
      <stop
         id="stop8561"
         offset="0"
         style="stop-color:#e6e6e6;stop-opacity:1" />
      <stop
         id="stop8563"
         offset="1"
         style="stop-color:#ffffff;stop-opacity:1" />
    </linearGradient>
    <linearGradient
       id="linearGradient8452">
      <stop
         id="stop8454"
         offset="0"
         style="stop-color:#c6c6c6;stop-opacity:1" />
      <stop
         id="stop8456"
         offset="1"
         style="stop-color:#eeeeee;stop-opacity:1" />
    </linearGradient>
    <linearGradient
       gradientUnits="userSpaceOnUse"
       y2="55.999336"
       x2="55.999214"
       y1="343.00006"
       x1="342.99994"
       id="linearGradient8458"
       xlink:href="#linearGradient8452" />
    <linearGradient
       gradientUnits="userSpaceOnUse"
       y2="59.574646"
       x2="59.574722"
       y1="340.4252"
       x1="340.42526"
       id="linearGradient8565"
       xlink:href="#linearGradient8559"
       gradientTransform="translate(20,20)" />
    <filter
       style="color-interpolation-filters:sRGB"
       id="filter8418">
      <feFlood
         flood-opacity="0.0941176"
         flood-color="rgb(0,0,0)"
         result="flood"
         id="feFlood8420" />
      <feComposite
         in="flood"
         in2="SourceGraphic"
         operator="in"
         result="composite1"
         id="feComposite8422" />
      <feGaussianBlur
         in="composite1"
         stdDeviation="0"
         result="blur"
         id="feGaussianBlur8424" />
      <feOffset
         dx="4"
         dy="4"
         result="offset"
         id="feOffset8426" />
      <feComposite
         in="SourceGraphic"
         in2="offset"
         operator="over"
         result="composite2"
         id="feComposite8428" />
    </filter>
    <linearGradient
       gradientUnits="userSpaceOnUse"
       y2="55.999336"
       x2="55.999214"
       y1="343.00006"
       x1="342.99994"
       id="linearGradient8458-5"
       xlink:href="#linearGradient8452" />
    <radialGradient
       inkscape:collect="always"
       xlink:href="#linearGradient4279-1"
       id="radialGradient4285"
       cx="221.11832"
       cy="220.9628"
       fx="221.11832"
       fy="220.9628"
       r="220.07776"
       gradientUnits="userSpaceOnUse"
       gradientTransform="matrix(0.95744681,0,0,0.95744681,16.774301,16.767683)" />
  </defs>
  <metadata
     id="metadata7">
    <rdf:rdf>
      <cc:work
         rdf:about="">
        <dc:format>image/svg+xml</dc:format>
        <dc:type
           rdf:resource="http://purl.org/dc/dcmitype/StillImage" />
        <dc:title />
      </cc:work>
    </rdf:rdf>
    <rdf:RDF>
      <cc:Work
         rdf:about="">
        <dc:format>image/svg+xml</dc:format>
        <dc:type
           rdf:resource="http://purl.org/dc/dcmitype/StillImage" />
        <dc:title></dc:title>
      </cc:Work>
    </rdf:RDF>
  </metadata>
  <circle
     style="fill:url(#radialGradient4285);fill-opacity:1;fill-rule:evenodd;stroke:none;stroke-width:1px;stroke-linecap:butt;stroke-linejoin:miter;stroke-opacity:1"
     id="path3469"
     cx="228.48332"
     cy="228.3278"
     r="210.71275" />
  <circle
     r="194.3253"
     cy="220.00002"
     cx="220"
     id="circle8552"
     style="opacity:1;fill:url(#linearGradient8565);fill-opacity:1;stroke:none;stroke-width:11.3493948;stroke-linecap:round;stroke-linejoin:round;stroke-miterlimit:4;stroke-dasharray:none;stroke-dashoffset:0;stroke-opacity:1" />
  <g
     id="text8280"
     style="font-style:normal;font-variant:normal;font-weight:300;font-stretch:normal;font-size:50px;line-height:125%;font-family:Roboto;-inkscape-font-specification:'Roboto Light';letter-spacing:0px;word-spacing:0px;fill:#000000;fill-opacity:1;stroke:none;stroke-width:1px;stroke-linecap:butt;stroke-linejoin:miter;stroke-opacity:1"
     transform="translate(20,20)">
    <path
       id="path8427"
       d="m 186.4624,77.018402 -1.31836,0 0,-34.790039 -8.98437,1.904297 0,-1.123047 10.30273,-2.050781 0,36.05957 z"
       inkscape:connector-curvature="0" />
    <path
       id="path8429"
       d="m 223.84033,77.018402 -21.26465,0 0,-1.318359 12.13379,-13.964844 q 3.24707,-3.759766 4.56543,-6.274414 1.31836,-2.539063 1.31836,-4.956055 0,-3.955078 -2.00195,-6.079101 -2.00195,-2.148438 -6.17676,-2.148438 -4.37012,0 -6.76269,2.563477 -2.39258,2.563476 -2.39258,6.640625 l -1.12305,0 -0.0488,-0.146485 q -0.12207,-4.321289 2.70996,-7.348632 2.85645,-3.027344 7.61719,-3.027344 4.37012,0 6.93359,2.490234 2.5879,2.490235 2.5879,7.055664 0,2.954102 -1.92872,6.030274 -1.90429,3.076172 -5.3955,7.15332 l -10.18067,11.889648 0.0488,0.122071 19.36035,0 0,1.318359 z"
       inkscape:connector-curvature="0" />
  </g>
  <g
     id="text8280-1"
     style="font-style:normal;font-variant:normal;font-weight:300;font-stretch:normal;font-size:50px;line-height:125%;font-family:Roboto;-inkscape-font-specification:'Roboto Light';letter-spacing:0px;word-spacing:0px;fill:#000000;fill-opacity:1;stroke:none;stroke-width:1px;stroke-linecap:butt;stroke-linejoin:miter;stroke-opacity:1"
     transform="translate(20,20)">
    <path
       id="path8424"
       d="m 272.18958,103.78049 -1.31836,0 0,-34.790042 -8.98438,1.904297 0,-1.123047 10.30274,-2.050781 0,36.059573 z"
       inkscape:connector-curvature="0" />
  </g>
  <path
     style="fill:none;fill-rule:evenodd;stroke:#000000;stroke-width:1;stroke-linecap:butt;stroke-linejoin:miter;stroke-miterlimit:4;stroke-dasharray:none;stroke-opacity:1"
     d="m 405.13555,220 c -7.73909,0 -15.47817,0 -23.21725,0 m 21.95525,19.40643 -11.42681,-1.366 m 8.00815,20.33704 -11.16042,-2.64743 m 5.71749,21.05067 -10.80943,-3.84426 m 3.47465,21.54729 -10.37387,-4.9565 m 1.27963,21.82692 -19.70741,-11.96833 m 8.98613,27.87374 -9.24898,-6.92725 m -2.96695,21.73524 -8.55965,-7.78574 m -5.01851,21.3639 -7.78574,-8.55965 m -7.02224,20.77557 -6.92725,-9.24897 m -8.97816,19.97025 -11.96833,-19.70741 m -4.9021,28.80165 -4.9565,-10.37387 m -12.74654,17.70865 -3.84426,-10.80943 m -14.55897,16.25236 -2.64743,-11.16042 m -16.32363,14.57908 -1.366,-11.42682 M 220,405.13551 c 0,-7.73908 0,-15.47816 0,-23.21725 m -19.40642,21.95526 1.366,-11.42681 m -20.33703,8.00816 2.64742,-11.16042 m -21.05068,5.71749 3.84426,-10.80944 m -21.54729,3.47465 4.95651,-10.37386 m -21.82693,1.27963 11.96834,-19.70741 m -27.87375,8.98612 6.92724,-9.24897 m -21.735227,-2.96695 7.785737,-8.55965 m -21.363891,-5.0185 8.559649,-7.78574 m -20.775581,-7.02226 9.248973,-6.92725 m -19.970253,-8.97815 19.707415,-11.96833 m -28.801649,-4.90209 10.373865,-4.95651 M 44.988054,276.78069 55.797488,272.93643 M 39.54513,258.37746 50.705548,255.73003 m -14.579078,-16.32361 11.426816,-1.366 M 34.864491,219.99999 c 7.739083,0 15.478166,0 23.217249,0 m -21.955268,-19.40643 11.426816,1.366 m -8.008155,-20.33703 11.160418,2.64742 m -5.717493,-21.05066 10.809434,3.84426 m -3.474644,-21.5473 10.373865,4.9565 m -1.27963,-21.82692 19.707414,11.96833 m -8.986133,-27.87374 9.248972,6.92725 m 2.96696,-21.73524 8.559649,7.78574 m 5.018506,-21.36389 7.785739,8.55964 m 7.02224,-20.775564 6.92725,9.248974 m 8.97817,-19.970264 11.96833,19.707414 m 4.90209,-28.801646 4.95651,10.373865 m 12.74652,-17.708647 3.84426,10.809434 m 14.559,-16.252362 2.64742,11.160418 m 16.32361,-14.579076 1.366,11.426816 m 18.04042,-12.688797 c 0,7.739083 0,15.478166 0,23.217249 m 19.40644,-21.955265 -1.366,11.426816 m 20.33704,-8.008156 -2.64743,11.160418 m 21.05066,-5.717494 -3.84426,10.809434 m 21.54729,-3.474653 -4.9565,10.373866 m 21.82694,-1.279623 -11.96834,19.707413 m 27.87374,-8.986133 -6.92725,9.248973 m 21.73523,2.96695 -7.78574,8.55965 m 21.36391,5.01851 -8.55965,7.78574 m 20.77557,7.02224 -9.24897,6.92725 m 19.97025,8.97816 -19.70741,11.96833 m 28.80165,4.9021 -10.37386,4.95651 m 17.70865,12.74652 -10.80944,3.84426 m 16.25236,14.55898 -11.16042,2.64742 m 14.57908,16.32363 -11.42681,1.366 M 405.13555,220 c -7.73909,0 -15.47817,0 -23.21725,0"
     id="path8264"
     inkscape:connector-curvature="0" />
  <g
     id="text8280-1-8"
     style="font-style:normal;font-variant:normal;font-weight:300;font-stretch:normal;font-size:50px;line-height:125%;font-family:Roboto;-inkscape-font-specification:'Roboto Light';letter-spacing:0px;word-spacing:0px;fill:#000000;fill-opacity:1;stroke:none;stroke-width:1px;stroke-linecap:butt;stroke-linejoin:miter;stroke-opacity:1"
     transform="translate(20,20)">
    <path
       id="path8421"
       d="m 329.99799,148.27202 -21.26465,0 0,-1.31836 12.13379,-13.96484 q 3.24707,-3.75977 4.56543,-6.27442 1.31836,-2.53906 1.31836,-4.95605 0,-3.95508 -2.00196,-6.07911 -2.00195,-2.14843 -6.17676,-2.14843 -4.37011,0 -6.76269,2.56347 -2.39258,2.56348 -2.39258,6.64063 l -1.12305,0 -0.0488,-0.14649 q -0.12207,-4.32128 2.70996,-7.34863 2.85644,-3.02734 7.61718,-3.02734 4.37012,0 6.9336,2.49023 2.58789,2.49024 2.58789,7.05567 0,2.9541 -1.92871,6.03027 -1.9043,3.07617 -5.39551,7.15332 l -10.18066,11.88965 0.0488,0.12207 19.36036,0 0,1.31836 z"
       inkscape:connector-curvature="0" />
  </g>
  <path
     style="fill:none;fill-rule:evenodd;stroke:#000000;stroke-width:5;stroke-linecap:butt;stroke-linejoin:miter;stroke-miterlimit:4;stroke-dasharray:none;stroke-opacity:1"
     d="m 405.13555,220 c -7.73909,0 -15.47817,0 -23.21725,0 m -3.33536,91.35417 -19.70741,-11.96834 m -47.52136,79.19709 -11.96833,-19.70741 m -79.38583,46.26 c 0,-7.73908 0,-15.47817 0,-23.21725 m -91.35418,-3.33535 11.96834,-19.70741 M 61.41707,311.35414 81.124486,299.38582 M 34.864488,219.99999 c 7.739083,0 15.478166,0 23.217249,0 m 3.335354,-91.35418 19.707413,11.96834 M 128.64585,61.417068 140.61418,81.12448 m 79.38584,-46.259984 c 0,7.739083 0,15.478165 0,23.217248 m 91.35416,3.335332 -11.96833,19.707414 m 79.1971,47.52135 -19.70742,11.96833 M 405.13555,220 c -7.73909,0 -15.47817,0 -23.21725,0"
     id="path8264-1"
     inkscape:connector-curvature="0" />
  <g
     id="text8280-1-8-6"
     style="font-style:normal;font-variant:normal;font-weight:300;font-stretch:normal;font-size:50px;line-height:125%;font-family:Roboto;-inkscape-font-specification:'Roboto Light';letter-spacing:0px;word-spacing:0px;fill:#000000;fill-opacity:1;stroke:none;stroke-width:1px;stroke-linecap:butt;stroke-linejoin:miter;stroke-opacity:1"
     transform="translate(20,20)">
    <path
       id="path8418"
       d="m 342.55664,198.9502 q 4.46777,0 7.03125,-2.22168 2.56348,-2.22168 2.56348,-5.46875 0,-3.58887 -2.22168,-5.90821 -2.19727,-2.31933 -6.49414,-2.31933 -3.95508,0 -6.56739,2.31933 -2.6123,2.31934 -2.6123,6.17676 l -1.12305,0 -0.0488,-0.14648 q -0.12207,-4.32129 2.88086,-6.98243 3.02735,-2.68554 7.47071,-2.68554 4.58984,0 7.2998,2.6123 2.73438,2.58789 2.73438,7.03125 0,2.80762 -1.78223,5.0293 -1.75781,2.22168 -4.76074,3.19824 3.46679,0.85449 5.39551,3.10059 1.92871,2.24609 1.92871,5.66406 0,4.63867 -2.95411,7.2998 -2.9541,2.63672 -7.6416,2.63672 -4.5166,0 -7.9834,-2.66113 -3.46679,-2.68555 -3.34472,-7.59277 l 0.0488,-0.14649 1.12304,0 q 0,3.95508 2.88086,6.51856 2.90528,2.56347 7.27539,2.56347 4.39453,0 6.83594,-2.24609 2.44141,-2.27051 2.44141,-6.27441 0,-4.1504 -2.80762,-6.12793 -2.7832,-2.00196 -7.56836,-2.00196 l -2.70996,0 0,-1.36718 2.70996,0 z"
       inkscape:connector-curvature="0" />
  </g>
  <g
     id="text8280-1-8-4"
     style="font-style:normal;font-variant:normal;font-weight:300;font-stretch:normal;font-size:50px;line-height:125%;font-family:Roboto;-inkscape-font-specification:'Roboto Light';letter-spacing:0px;word-spacing:0px;fill:#000000;fill-opacity:1;stroke:none;stroke-width:1px;stroke-linecap:butt;stroke-linejoin:miter;stroke-opacity:1"
     transform="translate(20,20)">
    <path
       id="path8415"
       d="m 325.32016,277.5155 6.15234,0 0,1.31836 -6.15234,0 0,9.69239 -1.31836,0 0,-9.69239 -17.23633,0 0,-0.73242 16.96778,-25.12207 1.58691,0 0,24.53613 z m -16.50391,0 15.18555,0 0,-22.68066 -0.14648,-0.0488 -1.9043,3.14941 -13.13477,19.58008 z"
       inkscape:connector-curvature="0" />
  </g>
  <g
     id="text8280-1-8-9"
     style="font-style:normal;font-variant:normal;font-weight:300;font-stretch:normal;font-size:50px;line-height:125%;font-family:Roboto;-inkscape-font-specification:'Roboto Light';letter-spacing:0px;word-spacing:0px;fill:#000000;fill-opacity:1;stroke:none;stroke-width:1px;stroke-linecap:butt;stroke-linejoin:miter;stroke-opacity:1"
     transform="translate(20,20)">
    <path
       id="path8412"
       d="m 257.15302,318.67834 1.90429,-19.38476 16.84571,0 0,1.29394 -15.64942,0 -1.48926,15.0879 q 1.53809,-1.53809 3.34473,-2.31934 1.83105,-0.78125 5.37109,-0.87891 4.24805,-0.12207 7.00684,2.90528 2.75879,3.02734 2.75879,8.12988 0,5.44434 -2.56348,8.64258 -2.56347,3.19824 -7.93457,3.19824 -4.32129,0 -7.17773,-2.44141 -2.85645,-2.46582 -2.73438,-7.27539 l 0.0488,-0.14648 1.14746,0 q 0,4.19922 2.34375,6.37207 2.34375,2.17285 6.37207,2.17285 4.73633,0 6.9336,-2.6123 2.22168,-2.61231 2.22168,-7.86133 0,-4.49219 -2.22168,-7.08008 -2.19727,-2.58789 -6.17676,-2.58789 -3.90625,0 -6.15235,1.31836 -2.22168,1.29394 -3.19824,3.85742 l -1.00097,-0.39063 z"
       inkscape:connector-curvature="0" />
  </g>
  <g
     id="text8280-1-8-98"
     style="font-style:normal;font-variant:normal;font-weight:300;font-stretch:normal;font-size:50px;line-height:125%;font-family:Roboto;-inkscape-font-specification:'Roboto Light';letter-spacing:0px;word-spacing:0px;fill:#000000;fill-opacity:1;stroke:none;stroke-width:1px;stroke-linecap:butt;stroke-linejoin:miter;stroke-opacity:1"
     transform="translate(20,20)">
    <path
       id="path8409"
       d="m 200.25635,319.18008 q 1.90429,0 3.78418,0.41504 1.87988,0.39063 3.41797,1.29395 l -0.5127,1.24512 q -1.58691,-0.90332 -3.10059,-1.26954 -1.48925,-0.36621 -3.58886,-0.36621 -4.05274,0 -6.78711,3.10059 -2.70996,3.07617 -2.70996,8.17871 l 0,7.29981 q 1.19629,-2.68555 3.78418,-4.44336 2.6123,-1.78223 5.98144,-1.78223 4.83399,0 7.42188,3.10059 2.6123,3.07617 2.6123,8.54492 0,4.98047 -2.9541,8.12988 -2.92969,3.125 -7.56836,3.125 -4.63867,0 -7.61719,-3.54004 -2.97851,-3.56445 -2.97851,-9.47266 l 0,-10.9375 q 0,-5.5664 3.10058,-9.08203 3.10059,-3.54004 7.71485,-3.54004 z m -9.49707,23.46192 0,0.0732 q 0,5.27344 2.58789,8.52051 2.58789,3.22265 6.68945,3.22265 4.12598,0 6.66504,-2.85644 2.53906,-2.85645 2.53906,-7.10449 0,-5.0293 -2.19726,-7.66602 -2.19727,-2.66113 -6.68946,-2.66113 -3.75976,0 -6.66504,2.51465 -2.90527,2.51465 -2.90527,5.95703 l -0.0244,0 z"
       inkscape:connector-curvature="0" />
  </g>
  <g
     id="g8554"
     transform="translate(20,20)"
     style="fill-opacity:1;fill:none;stroke-width:15;stroke-miterlimit:4;stroke-dasharray:none;stroke:#000000;stroke-opacity:0.48520711">
    <circle
       r="194.3253"
       cy="200.00002"
       cx="200"
       id="circle8530"
       style="opacity:1;fill-opacity:1;stroke:#000000;stroke-width:15;stroke-linecap:round;stroke-linejoin:round;stroke-miterlimit:4;stroke-dasharray:none;stroke-dashoffset:0;stroke-opacity:0.48520711;fill:none" />
  </g>
  <g
     id="text8280-1-8-5"
     style="font-style:normal;font-variant:normal;font-weight:300;font-stretch:normal;font-size:50px;line-height:125%;font-family:Roboto;-inkscape-font-specification:'Roboto Light';letter-spacing:0px;word-spacing:0px;fill:#000000;fill-opacity:1;stroke:none;stroke-width:1px;stroke-linecap:butt;stroke-linejoin:miter;stroke-opacity:1"
     transform="translate(20,20)">
    <path
       id="path8406"
       d="m 135.29439,300.86829 q -5.34668,6.00586 -8.91113,13.69629 -3.56446,7.69042 -3.56446,17.33398 l 0,3.19824 -1.31836,0 0,-3.19824 q 0,-8.83789 3.27149,-16.67481 3.27148,-7.83691 8.93554,-14.35546 l -21.11816,0 0,-1.31836 22.70508,0 0,1.31836 z"
       inkscape:connector-curvature="0" />
  </g>
  <g
     id="text8280-1-8-2"
     style="font-style:normal;font-variant:normal;font-weight:300;font-stretch:normal;font-size:50px;line-height:125%;font-family:Roboto;-inkscape-font-specification:'Roboto Light';letter-spacing:0px;word-spacing:0px;fill:#000000;fill-opacity:1;stroke:none;stroke-width:1px;stroke-linecap:butt;stroke-linejoin:miter;stroke-opacity:1"
     transform="translate(20,20)">
    <path
       id="path8403"
       d="m 92.96331,261.76843 q 0,2.97852 -1.80664,5.2002 -1.782227,2.22168 -4.663086,3.125 3.320312,0.92773 5.395507,3.32031 2.09961,2.39258 2.09961,5.61523 0,4.6875 -3.173828,7.34864 -3.173828,2.66113 -7.885742,2.66113 -5.029297,0 -8.325196,-2.63672 -3.271484,-2.66113 -3.271484,-7.37305 0,-3.22265 2.124023,-5.61523 2.148438,-2.41699 5.639649,-3.32031 -3.051758,-0.90332 -4.907227,-3.125 -1.855469,-2.22168 -1.855469,-5.2002 0,-4.44336 2.978516,-6.86035 2.978516,-2.44141 7.568359,-2.44141 4.321289,0 7.202149,2.44141 2.880859,2.44141 2.880859,6.86035 z m -0.317383,17.38282 q 0,-3.73536 -2.856445,-6.05469 -2.832031,-2.34375 -6.90918,-2.34375 -4.345703,0 -7.299804,2.34375 -2.929688,2.31933 -2.929688,6.05469 0,3.93066 2.929688,6.25 2.929687,2.31933 7.348633,2.31933 4.101562,0 6.909179,-2.31933 2.807617,-2.34375 2.807617,-6.25 z m -1.000976,-17.50489 q 0,-3.46679 -2.563477,-5.66406 -2.563476,-2.19727 -6.201172,-2.19727 -3.979492,0 -6.616211,2.12403 -2.612304,2.09961 -2.612304,5.7373 0,3.54004 2.636719,5.66406 2.661132,2.12403 6.640625,2.12403 3.662109,0 6.176757,-2.12403 2.539063,-2.14843 2.539063,-5.66406 z"
       inkscape:connector-curvature="0" />
  </g>
  <g
     id="text8280-1-8-67"
     style="font-style:normal;font-variant:normal;font-weight:300;font-stretch:normal;font-size:50px;line-height:125%;font-family:Roboto;-inkscape-font-specification:'Roboto Light';letter-spacing:0px;word-spacing:0px;fill:#000000;fill-opacity:1;stroke:none;stroke-width:1px;stroke-linecap:butt;stroke-linejoin:miter;stroke-opacity:1"
     transform="translate(20,20)">
    <path
       id="path8442"
       d="m 55.656963,216.96777 q 4.272461,0 6.762696,-2.75879 2.490234,-2.75878 2.490234,-7.61718 l 0,-7.12891 q -1.367187,2.53906 -3.881836,3.97949 -2.490234,1.44043 -5.59082,1.44043 -4.614258,0 -7.543946,-3.24707 -2.905273,-3.24707 -2.905273,-7.9834 0,-5.02929 2.978516,-8.47168 3.002929,-3.46679 7.666015,-3.46679 4.785157,0 7.788086,3.24707 3.00293,3.24707 3.00293,9.30176 l 0,12.28027 q 0,5.46875 -2.954102,8.61816 -2.954101,3.125 -7.8125,3.125 -1.733398,0 -3.515625,-0.39062 -1.782226,-0.39063 -3.637695,-1.14746 l 0.390625,-1.22071 q 1.611328,0.78125 3.149414,1.12305 1.5625,0.31738 3.613281,0.31738 z m -0.219726,-13.3789 q 3.637695,0 6.079101,-1.92871 2.441407,-1.95313 3.393555,-4.73633 l 0,-2.63672 q 0,-5.41992 -2.563477,-8.3252 -2.539062,-2.92968 -6.61621,-2.92968 -4.101563,0 -6.66504,3.17382 -2.563476,3.14942 -2.563476,7.44629 0,4.12598 2.416992,7.03125 2.441406,2.90528 6.518555,2.90528 z"
       inkscape:connector-curvature="0" />
  </g>
  <g
     id="text8280-1-8-8"
     style="font-style:normal;font-variant:normal;font-weight:300;font-stretch:normal;font-size:50px;line-height:125%;font-family:Roboto;-inkscape-font-specification:'Roboto Light';letter-spacing:0px;word-spacing:0px;fill:#000000;fill-opacity:1;stroke:none;stroke-width:1px;stroke-linecap:butt;stroke-linejoin:miter;stroke-opacity:1"
     transform="translate(20,20)">
    <path
       id="path8437"
       d="m 74.488483,156.49025 -1.318359,0 0,-34.79004 -8.984375,1.9043 0,-1.12305 10.302734,-2.05078 0,36.05957 z"
       inkscape:connector-curvature="0" />
    <path
       id="path8439"
       d="m 111.30489,143.94142 q 0,6.12793 -2.83203,9.59473 -2.83203,3.46679 -7.95899,3.46679 -5.102535,0 -7.983394,-3.46679 -2.88086,-3.49121 -2.88086,-9.59473 l 0,-10.44922 q 0,-6.10351 2.832031,-9.57031 2.856446,-3.49121 7.983403,-3.49121 5.10253,0 7.95898,3.49121 2.88086,3.4668 2.88086,9.57031 l 0,10.44922 z m -1.31836,-10.44922 q 0,-5.37109 -2.46582,-8.54492 -2.46582,-3.19824 -7.05566,-3.19824 -4.614262,0 -7.055668,3.19824 -2.441406,3.17383 -2.441406,8.54492 l 0,10.40039 q 0,5.29785 2.46582,8.54493 2.490234,3.24707 7.080074,3.24707 4.56543,0 7.00684,-3.22266 2.46582,-3.24707 2.46582,-8.56934 l 0,-10.40039 z"
       inkscape:connector-curvature="0" />
  </g>
  <g
     id="text8280-1-8-24"
     style="font-style:normal;font-variant:normal;font-weight:300;font-stretch:normal;font-size:50px;line-height:125%;font-family:Roboto;-inkscape-font-specification:'Roboto Light';letter-spacing:0px;word-spacing:0px;fill:#000000;fill-opacity:1;stroke:none;stroke-width:1px;stroke-linecap:butt;stroke-linejoin:miter;stroke-opacity:1"
     transform="translate(20,20)">
    <path
       id="path8432"
       d="m 119.92448,103.78049 -1.31836,0 0,-34.790042 -8.98437,1.904297 0,-1.123047 10.30273,-2.050781 0,36.059573 z"
       inkscape:connector-curvature="0" />
    <path
       id="path8434"
       d="m 147.26823,103.78049 -1.31836,0 0,-34.790042 -8.98437,1.904297 0,-1.123047 10.30273,-2.050781 0,36.059573 z"
       inkscape:connector-curvature="0" />
  </g>
  <path
     id="clock-3-9-6"
     d="M 219.97602,31.173828 A 188.95972,188.95972 0 0 0 31.015446,220.1344 188.95972,188.95972 0 0 0 55.627138,312.91016 241.19989,241.19989 0 0 1 52.677679,276.53294 241.19989,241.19989 0 0 1 266.37908,37.203778 188.95972,188.95972 0 0 0 219.97602,31.173828 Z"
     style="opacity:1;fill:#000000;fill-opacity:0.03831416;stroke:none;stroke-width:2;stroke-linecap:round;stroke-linejoin:round;stroke-miterlimit:4;stroke-dasharray:none;stroke-dashoffset:0;stroke-opacity:1"
     inkscape:connector-curvature="0" />
  <desc
     id="desc3441">Created with Snap</desc>
</svg>
